<?xml version="1.0" encoding="utf-8"?>
<!-- Generator: Adobe Illustrator 19.0.0, SVG Export Plug-In . SVG Version: 6.00 Build 0)  -->
<svg version="1.1" id="Layer_1" xmlns="http://www.w3.org/2000/svg" xmlns:xlink="http://www.w3.org/1999/xlink" x="0px" y="0px"
	 viewBox="0 0 144 58" style="enable-background:new 0 0 144 58;" xml:space="preserve">
<style type="text/css">
	.st0{fill:#FFFFFF;}
	.st1{clip-path:url(#XMLID_69_);fill:none;stroke:#FFFFFF;stroke-width:0.239;}
	.st2{clip-path:url(#XMLID_70_);fill:none;stroke:#FFFFFF;stroke-width:0.239;}
	.st3{clip-path:url(#XMLID_70_);fill:#FFFFFF;}
	.st4{clip-path:url(#XMLID_71_);fill:none;stroke:#FFFFFF;stroke-width:0.239;}
	.st5{clip-path:url(#XMLID_71_);fill:#FFFFFF;}
	.st6{clip-path:url(#XMLID_72_);fill:none;stroke:#FFFFFF;stroke-width:0.239;}
	.st7{clip-path:url(#XMLID_72_);fill:#FFFFFF;}
	.st8{clip-path:url(#XMLID_73_);fill:#FFFFFF;}
	.st9{clip-path:url(#XMLID_73_);fill:none;stroke:#FFFFFF;stroke-width:0.239;}
	.st10{clip-path:url(#XMLID_73_);fill:#8D847A;}
	.st11{clip-path:url(#XMLID_73_);fill:none;stroke:#8D847A;stroke-width:0.239;}
</style>
<rect id="XMLID_68_" x="3.6" y="46.8" class="st0" width="0.7" height="10.9"/>
<g id="XMLID_65_">
	<defs>
		<rect id="XMLID_66_" x="3" y="2.5" width="137.7" height="55.5"/>
	</defs>
	<clipPath id="XMLID_69_">
		<use xlink:href="#XMLID_66_"  style="overflow:visible;"/>
	</clipPath>
	<rect id="XMLID_67_" x="3.6" y="46.8" class="st1" width="0.7" height="10.9"/>
</g>
<polygon id="XMLID_64_" class="st0" points="9.9,46.8 9.9,47.4 13,47.4 13,57.7 13.7,57.7 13.7,47.4 16.8,47.4 16.8,46.8 "/>
<g id="XMLID_57_">
	<defs>
		<rect id="XMLID_58_" x="3" y="2.5" width="137.7" height="55.5"/>
	</defs>
	<clipPath id="XMLID_70_">
		<use xlink:href="#XMLID_58_"  style="overflow:visible;"/>
	</clipPath>
	<polygon id="XMLID_63_" class="st2" points="9.9,47.4 9.9,46.8 16.8,46.8 16.8,47.4 13.7,47.4 13.7,57.7 13,57.7 13,47.4 	"/>
	<path id="XMLID_62_" class="st3" d="M21.4,57.7v-7.1c0-1.2,0.3-2.2,1-3c0.7-0.7,1.5-1.1,2.6-1.1c1.1,0,2,0.4,2.6,1.1
		c0.7,0.7,1,1.7,1,3v7.1h-0.7v-5.4h-5.3v-0.6h5.3v-0.8c0-1.2-0.2-2.1-0.7-2.7c-0.5-0.6-1.2-0.9-2.2-0.9c-1,0-1.7,0.3-2.2,0.9
		c-0.5,0.6-0.8,1.5-0.8,2.7v6.8H21.4z"/>
	<path id="XMLID_61_" class="st2" d="M21.4,57.7v-7.1c0-1.2,0.3-2.2,1-3c0.7-0.7,1.5-1.1,2.6-1.1c1.1,0,2,0.4,2.6,1.1
		c0.7,0.7,1,1.7,1,3v7.1h-0.7v-5.4h-5.3v-0.6h5.3v-0.8c0-1.2-0.2-2.1-0.7-2.7c-0.5-0.6-1.2-0.9-2.2-0.9c-1,0-1.7,0.3-2.2,0.9
		c-0.5,0.6-0.8,1.5-0.8,2.7v6.8H21.4z"/>
	<path id="XMLID_60_" class="st3" d="M34.8,46.8h0.7v7.6c0,0.9,0.2,1.5,0.7,2c0.4,0.5,1.1,0.7,1.9,0.7h2.1v0.6h-1.9
		c-1.2,0-2.1-0.3-2.6-0.9c-0.6-0.6-0.9-1.4-0.9-2.6V46.8z"/>
	<path id="XMLID_59_" class="st2" d="M34.8,46.8h0.7v7.6c0,0.9,0.2,1.5,0.7,2c0.4,0.5,1.1,0.7,1.9,0.7h2.1v0.6h-1.9
		c-1.2,0-2.1-0.3-2.6-0.9c-0.6-0.6-0.9-1.4-0.9-2.6V46.8z"/>
</g>
<rect id="XMLID_56_" x="45.5" y="46.8" class="st0" width="0.7" height="10.9"/>
<g id="XMLID_47_">
	<defs>
		<rect id="XMLID_48_" x="3" y="2.5" width="137.7" height="55.5"/>
	</defs>
	<clipPath id="XMLID_71_">
		<use xlink:href="#XMLID_48_"  style="overflow:visible;"/>
	</clipPath>
	<rect id="XMLID_55_" x="45.5" y="46.8" class="st4" width="0.7" height="10.9"/>
	<path id="XMLID_54_" class="st5" d="M52.5,57.7v-7.1c0-1.2,0.3-2.2,1-3c0.7-0.7,1.5-1.1,2.6-1.1c1.1,0,2,0.4,2.6,1.1
		c0.7,0.7,1,1.7,1,3v7.1H59v-5.4h-5.3v-0.6H59v-0.8c0-1.2-0.2-2.1-0.7-2.7s-1.2-0.9-2.2-0.9c-0.9,0-1.7,0.3-2.2,0.9
		c-0.5,0.6-0.8,1.5-0.8,2.7v6.8H52.5z"/>
	<path id="XMLID_53_" class="st4" d="M52.5,57.7v-7.1c0-1.2,0.3-2.2,1-3c0.7-0.7,1.5-1.1,2.6-1.1c1.1,0,2,0.4,2.6,1.1
		c0.7,0.7,1,1.7,1,3v7.1H59v-5.4h-5.3v-0.6H59v-0.8c0-1.2-0.2-2.1-0.7-2.7s-1.2-0.9-2.2-0.9c-0.9,0-1.7,0.3-2.2,0.9
		c-0.5,0.6-0.8,1.5-0.8,2.7v6.8H52.5z"/>
	<path id="XMLID_52_" class="st5" d="M66,57.7v-10c0-0.3,0.1-0.5,0.2-0.7c0.2-0.2,0.4-0.3,0.6-0.3c0.2,0,0.4,0.1,0.5,0.2
		c0.2,0.1,0.3,0.3,0.4,0.6l4.5,9.6c0,0,0.1,0.1,0.1,0.1c0,0,0.1,0,0.1,0c0.1,0,0.1,0,0.1-0.1c0,0,0.1-0.1,0.1-0.2V46.8h0.7v10.1
		c0,0.3-0.1,0.5-0.2,0.7c-0.2,0.2-0.4,0.3-0.6,0.3c-0.2,0-0.4-0.1-0.5-0.2c-0.2-0.1-0.3-0.3-0.4-0.6l-4.5-9.6c0-0.1-0.1-0.1-0.1-0.1
		c0,0-0.1,0-0.1,0c-0.1,0-0.1,0-0.1,0.1c0,0.1-0.1,0.1-0.1,0.2v10.1H66z"/>
	<path id="XMLID_51_" class="st4" d="M66,57.7v-10c0-0.3,0.1-0.5,0.2-0.7c0.2-0.2,0.4-0.3,0.6-0.3c0.2,0,0.4,0.1,0.5,0.2
		c0.2,0.1,0.3,0.3,0.4,0.6l4.5,9.6c0,0,0.1,0.1,0.1,0.1c0,0,0.1,0,0.1,0c0.1,0,0.1,0,0.1-0.1c0,0,0.1-0.1,0.1-0.2V46.8h0.7v10.1
		c0,0.3-0.1,0.5-0.2,0.7c-0.2,0.2-0.4,0.3-0.6,0.3c-0.2,0-0.4-0.1-0.5-0.2c-0.2-0.1-0.3-0.3-0.4-0.6l-4.5-9.6c0-0.1-0.1-0.1-0.1-0.1
		c0,0-0.1,0-0.1,0c-0.1,0-0.1,0-0.1,0.1c0,0.1-0.1,0.1-0.1,0.2v10.1H66z"/>
	<path id="XMLID_50_" class="st5" d="M87,57.7v-0.7h2.6c1.3,0,2.2-0.2,2.7-0.5c0.5-0.3,0.8-0.9,0.8-1.6c0-0.5-0.2-1-0.5-1.3
		c-0.3-0.3-1-0.7-2.1-1.1l-0.7-0.3c-1.2-0.4-1.9-0.9-2.3-1.3c-0.4-0.4-0.6-1-0.6-1.7c0-0.8,0.3-1.4,0.9-1.8c0.6-0.4,1.5-0.6,2.6-0.6
		h2.8v0.6h-3c-0.8,0-1.5,0.2-1.9,0.5c-0.4,0.3-0.7,0.8-0.7,1.3c0,0.5,0.1,0.9,0.4,1.3c0.3,0.3,0.9,0.7,1.8,1l0.8,0.3
		c0.1,0,0.1,0.1,0.3,0.1c1,0.4,1.6,0.7,1.9,0.9c0.3,0.3,0.6,0.6,0.8,1c0.2,0.3,0.2,0.7,0.2,1.1c0,0.9-0.3,1.6-0.9,2.1
		c-0.6,0.5-1.5,0.7-2.6,0.7H87z"/>
	<path id="XMLID_49_" class="st4" d="M87,57.7v-0.7h2.6c1.3,0,2.2-0.2,2.7-0.5c0.5-0.3,0.8-0.9,0.8-1.6c0-0.5-0.2-1-0.5-1.3
		c-0.3-0.3-1-0.7-2.1-1.1l-0.7-0.3c-1.2-0.4-1.9-0.9-2.3-1.3c-0.4-0.4-0.6-1-0.6-1.7c0-0.8,0.3-1.4,0.9-1.8c0.6-0.4,1.5-0.6,2.6-0.6
		h2.8v0.6h-3c-0.8,0-1.5,0.2-1.9,0.5c-0.4,0.3-0.7,0.8-0.7,1.3c0,0.5,0.1,0.9,0.4,1.3c0.3,0.3,0.9,0.7,1.8,1l0.8,0.3
		c0.1,0,0.1,0.1,0.3,0.1c1,0.4,1.6,0.7,1.9,0.9c0.3,0.3,0.6,0.6,0.8,1c0.2,0.3,0.2,0.7,0.2,1.1c0,0.9-0.3,1.6-0.9,2.1
		c-0.6,0.5-1.5,0.7-2.6,0.7H87z"/>
</g>
<polygon id="XMLID_46_" class="st0" points="99,46.8 99,47.4 102.1,47.4 102.1,57.7 102.8,57.7 102.8,47.4 105.9,47.4 105.9,46.8 
	"/>
<g id="XMLID_36_">
	<defs>
		<rect id="XMLID_37_" x="3" y="2.5" width="137.7" height="55.5"/>
	</defs>
	<clipPath id="XMLID_72_">
		<use xlink:href="#XMLID_37_"  style="overflow:visible;"/>
	</clipPath>
	<polygon id="XMLID_45_" class="st6" points="99,47.4 99,46.8 105.9,46.8 105.9,47.4 102.8,47.4 102.8,57.7 102.1,57.7 102.1,47.4 	
		"/>
	<path id="XMLID_44_" class="st7" d="M111.9,46.8v2.6c0,1,0.2,1.8,0.7,2.4c0.4,0.5,1.1,0.8,1.9,0.8c0.8,0,1.5-0.3,1.9-0.8
		c0.4-0.5,0.7-1.3,0.7-2.4v-2.6h0.7v2.8c0,1-0.3,1.9-0.8,2.5c-0.5,0.6-1.2,1-2.2,1.1v4.6h-0.7v-4.6c-0.9-0.1-1.7-0.5-2.2-1.1
		c-0.5-0.6-0.7-1.4-0.7-2.5v-2.8H111.9z"/>
	<path id="XMLID_43_" class="st6" d="M111.9,46.8v2.6c0,1,0.2,1.8,0.7,2.4c0.4,0.5,1.1,0.8,1.9,0.8c0.8,0,1.5-0.3,1.9-0.8
		c0.4-0.5,0.7-1.3,0.7-2.4v-2.6h0.7v2.8c0,1-0.3,1.9-0.8,2.5c-0.5,0.6-1.2,1-2.2,1.1v4.6h-0.7v-4.6c-0.9-0.1-1.7-0.5-2.2-1.1
		c-0.5-0.6-0.7-1.4-0.7-2.5v-2.8H111.9z"/>
	<path id="XMLID_42_" class="st7" d="M123.8,46.8h0.7v7.6c0,0.9,0.2,1.5,0.7,2c0.4,0.5,1.1,0.7,1.9,0.7h2.1v0.6h-1.9
		c-1.2,0-2.1-0.3-2.6-0.9c-0.6-0.6-0.9-1.4-0.9-2.6V46.8z"/>
	<path id="XMLID_41_" class="st6" d="M123.8,46.8h0.7v7.6c0,0.9,0.2,1.5,0.7,2c0.4,0.5,1.1,0.7,1.9,0.7h2.1v0.6h-1.9
		c-1.2,0-2.1-0.3-2.6-0.9c-0.6-0.6-0.9-1.4-0.9-2.6V46.8z"/>
	<path id="XMLID_40_" class="st7" d="M140.6,57.7h-0.4c-0.8,0-1.4-0.1-2-0.2c-0.6-0.1-1.1-0.3-1.5-0.5c-0.9-0.5-1.5-1.1-2-2
		c-0.5-0.8-0.7-1.8-0.7-2.8c0-1,0.2-1.9,0.7-2.8c0.5-0.8,1.1-1.5,2-2c0.4-0.2,0.9-0.4,1.5-0.5c0.6-0.1,1.3-0.2,2-0.2h0.4v0.6
		c-0.1,0-0.2,0-0.2,0c-0.1,0-0.2,0-0.4,0c-1.6,0-2.8,0.4-3.7,1.1c-0.9,0.7-1.4,1.8-1.6,3.2h5.9v0.6h-5.9c0.1,1.5,0.6,2.7,1.5,3.5
		c0.9,0.8,2.2,1.2,3.8,1.2c0.2,0,0.3,0,0.4,0c0.1,0,0.2,0,0.2,0V57.7z"/>
	<path id="XMLID_39_" class="st6" d="M140.6,57.7h-0.4c-0.8,0-1.4-0.1-2-0.2c-0.6-0.1-1.1-0.3-1.5-0.5c-0.9-0.5-1.5-1.1-2-2
		c-0.5-0.8-0.7-1.8-0.7-2.8c0-1,0.2-1.9,0.7-2.8c0.5-0.8,1.1-1.5,2-2c0.4-0.2,0.9-0.4,1.5-0.5c0.6-0.1,1.3-0.2,2-0.2h0.4v0.6
		c-0.1,0-0.2,0-0.2,0c-0.1,0-0.2,0-0.4,0c-1.6,0-2.8,0.4-3.7,1.1c-0.9,0.7-1.4,1.8-1.6,3.2h5.9v0.6h-5.9c0.1,1.5,0.6,2.7,1.5,3.5
		c0.9,0.8,2.2,1.2,3.8,1.2c0.2,0,0.3,0,0.4,0c0.1,0,0.2,0,0.2,0V57.7z"/>
	<path id="XMLID_38_" class="st7" d="M76.2,35v1.9h-0.6h-1.1c-5.9,0-10.6-1.5-13.9-4.5c-3.3-3-5-7.1-5-12.4c0-5.3,1.7-9.4,4.9-12.4
		c3.3-3,7.9-4.4,13.9-4.4c0.5,0,0.8,0,1.1,0c0.2,0,0.5,0,0.7,0.1v1.9c-0.3,0-0.5,0-0.8,0c-0.3,0-0.7,0-1.2,0c-5.1,0-9.1,1.3-12,4
		c-2.9,2.6-4.3,6.3-4.3,11c0,4.7,1.4,8.4,4.3,11c2.9,2.6,6.9,4,12.1,4c0.5,0,0.9,0,1.2,0C75.7,35,76,35,76.2,35"/>
</g>
<rect id="XMLID_35_" x="89" y="3.2" class="st0" width="2.2" height="33.7"/>
<g id="XMLID_3_">
	<defs>
		<rect id="XMLID_4_" x="3" y="2.5" width="137.7" height="55.5"/>
	</defs>
	<clipPath id="XMLID_73_">
		<use xlink:href="#XMLID_4_"  style="overflow:visible;"/>
	</clipPath>
	<path id="XMLID_34_" class="st8" d="M105.7,36.9h-2.1l4.1-31.3c0.1-1,0.4-1.6,0.8-2c0.4-0.4,1-0.6,1.8-0.6c0.7,0,1.3,0.2,1.7,0.5
		c0.4,0.4,0.8,0.9,1,1.7l8.6,29.1c0.1,0.2,0.2,0.4,0.3,0.6c0.1,0.1,0.2,0.2,0.3,0.2c0.1,0,0.2-0.1,0.3-0.2c0.1-0.1,0.2-0.3,0.3-0.6
		l8.6-29.1c0.2-0.8,0.5-1.3,1-1.7c0.4-0.4,1-0.6,1.8-0.6c0.8,0,1.4,0.2,1.8,0.6c0.4,0.4,0.6,1.1,0.7,2l4.1,31.3h-2.1l-4.1-31.4
		c0-0.2-0.1-0.4-0.2-0.5c-0.1-0.1-0.2-0.2-0.3-0.2c-0.2,0-0.3,0-0.4,0.1c-0.1,0.1-0.2,0.3-0.3,0.7l-8.4,28.6
		c-0.3,1.1-0.7,1.9-1.1,2.4c-0.4,0.5-1,0.7-1.6,0.7c-0.7,0-1.2-0.2-1.6-0.7c-0.4-0.5-0.8-1.3-1.1-2.4L111,5.5
		c-0.1-0.4-0.2-0.6-0.3-0.7c-0.1-0.1-0.2-0.1-0.4-0.1c-0.1,0-0.2,0.1-0.3,0.2c-0.1,0.2-0.2,0.3-0.2,0.5L105.7,36.9z"/>
	<path id="XMLID_33_" class="st8" d="M8.4,31.2C3.9,27,6.8,16.3,14.9,6.9c-0.5,0.5-0.9,0.9-1.4,1.4C4.1,18.4,0.4,30.1,5.2,34.5
		C9.6,38.6,20,34.8,29,25.9C21,32.5,12.5,34.9,8.4,31.2"/>
	<path id="XMLID_32_" class="st9" d="M8.4,31.2C3.9,27,6.8,16.3,14.9,6.9c-0.5,0.5-0.9,0.9-1.4,1.4C4.1,18.4,0.4,30.1,5.2,34.5
		C9.6,38.6,20,34.8,29,25.9C21,32.5,12.5,34.9,8.4,31.2z"/>
	<path id="XMLID_31_" class="st10" d="M45.1,4.3C40.6,0.2,30.3,4,21.3,12.8c8-6.5,16.5-8.9,20.5-5.2c4.6,4.2,1.7,14.9-6.5,24.3
		c0.5-0.5,0.9-0.9,1.4-1.4C46.1,20.4,49.8,8.7,45.1,4.3"/>
	<path id="XMLID_30_" class="st11" d="M45.1,4.3C40.6,0.2,30.3,4,21.3,12.8c8-6.5,16.5-8.9,20.5-5.2c4.6,4.2,1.7,14.9-6.5,24.3
		c0.5-0.5,0.9-0.9,1.4-1.4C46.1,20.4,49.8,8.7,45.1,4.3z"/>
</g>
</svg>
